<?xml version="1.0" encoding="UTF-8"?>
<svg width="215px" height="43px" viewBox="0 0 215 43" version="1.1" xmlns="http://www.w3.org/2000/svg" xmlns:xlink="http://www.w3.org/1999/xlink">
    <!-- Generator: Sketch 42 (36781) - http://www.bohemiancoding.com/sketch -->
    <title>logo</title>
    <defs></defs>
    <g id="Symbols" stroke="none" stroke-width="1" fill="none" fill-rule="evenodd">
        <g id="logo">
            <g>
                <rect id="Rectangle" fill="#0178D9" x="171.258621" y="1.70111006" width="43.7413793" height="31.6609589"></rect>
                <path d="M175.128056,27.239734 C175.417659,27.239734 175.658387,27.3257085 175.850249,27.4976601 C176.042111,27.6696118 176.13804,27.8895255 176.13804,28.1574081 C176.13804,28.4252906 176.042111,28.6452044 175.850249,28.817156 C175.658387,28.9891077 175.417659,29.0750822 175.128056,29.0750822 C174.834833,29.0750822 174.5932,28.9882027 174.403148,28.814441 C174.213096,28.6406794 174.118071,28.4216706 174.118071,28.1574081 C174.118071,27.8931456 174.213096,27.6741368 174.403148,27.5003751 C174.5932,27.3266135 174.834833,27.239734 175.128056,27.239734 Z M179.841317,27.7121461 C180.098339,27.7121461 180.297438,27.6424615 180.43862,27.5030902 C180.579801,27.3637188 180.648581,27.1691449 180.644961,26.9193626 L182.360848,26.9193626 C182.360848,27.5637287 182.130075,28.0922457 181.66852,28.5049296 C181.206966,28.9176135 180.612384,29.1239524 179.884757,29.1239524 C179.030429,29.1239524 178.357113,28.8560739 177.864788,28.3203088 C177.372464,27.7845437 177.126305,27.0424478 177.126305,26.0939989 L177.126305,26.0179785 C177.126305,25.4242929 177.235809,24.9003008 177.454821,24.4459865 C177.673833,23.9916722 177.989677,23.6423441 178.402361,23.3979918 C178.815044,23.1536395 179.303742,23.0314652 179.868467,23.0314652 C180.632294,23.0314652 181.238641,23.243234 181.687525,23.666778 C182.13641,24.090322 182.360848,24.6640889 182.360848,25.3880957 L180.644961,25.3880957 C180.644961,25.0840128 180.570751,24.8505241 180.42233,24.6876226 C180.273908,24.524721 180.074809,24.4432715 179.825027,24.4432715 C179.350802,24.4432715 179.073874,24.7455398 178.994233,25.3500855 C178.968893,25.5419474 178.956223,25.8062059 178.956223,26.1428691 C178.956223,26.7329347 179.026813,27.1419924 179.167994,27.3700546 C179.309175,27.5981167 179.533614,27.7121461 179.841317,27.7121461 Z M182.903851,26.0234086 C182.903851,25.436963 183.01788,24.9147809 183.245942,24.4568466 C183.474004,23.9989122 183.801613,23.6468692 184.228777,23.4007068 C184.655941,23.1545445 185.157308,23.0314652 185.732893,23.0314652 C186.612562,23.0314652 187.305788,23.3038687 187.812593,23.8486838 C188.319397,24.393499 188.572796,25.1346899 188.572796,26.0722788 L188.572796,26.1374391 C188.572796,27.0533077 188.318492,27.7800187 187.809878,28.3175938 C187.301263,28.8551689 186.612562,29.1239524 185.743753,29.1239524 C184.907525,29.1239524 184.236019,28.8732688 183.729214,28.371894 C183.22241,27.8705193 182.949101,27.1908681 182.909281,26.3329199 L182.903851,26.0234086 Z M184.733769,26.1374391 C184.733769,26.6804442 184.818838,27.078642 184.98898,27.3320444 C185.159122,27.5854468 185.41071,27.7121461 185.743753,27.7121461 C186.39536,27.7121461 186.728398,27.2107789 186.742878,26.2080294 L186.742878,26.0234086 C186.742878,24.9699786 186.40622,24.4432715 185.732893,24.4432715 C185.121108,24.4432715 184.789879,24.897579 184.739199,25.8062076 L184.733769,26.1374391 Z M191.108617,23.1400657 L191.168348,23.8296788 C191.584652,23.2975337 192.143938,23.0314652 192.846225,23.0314652 C193.588332,23.0314652 194.089699,23.3264936 194.350342,23.9165591 C194.748546,23.3264936 195.324122,23.0314652 196.07709,23.0314652 C197.268081,23.0314652 197.879857,23.7518412 197.912438,25.1926148 L197.912438,29.0153519 L196.07709,29.0153519 L196.07709,25.3066454 C196.07709,25.0061825 196.02641,24.7871737 195.925049,24.6496124 C195.823688,24.5120511 195.639069,24.4432715 195.371186,24.4432715 C195.009183,24.4432715 194.739494,24.6043606 194.562113,24.9265437 L194.567543,25.002564 L194.567543,29.0153519 L192.732195,29.0153519 L192.732195,25.3175054 C192.732195,25.0098025 192.683325,24.7871737 192.585584,24.6496124 C192.487843,24.5120511 192.301414,24.4432715 192.026291,24.4432715 C191.675148,24.4432715 191.40727,24.6043606 191.222648,24.9265437 L191.222648,29.0153519 L189.39273,29.0153519 L189.39273,23.1400657 L191.108617,23.1400657 Z" id=".com" fill="#FFFFFF"></path>
                <path d="M17.7395272,25.0649919 C17.7395272,23.8341803 17.3051296,22.8893655 16.4363214,22.2305193 C15.5675132,21.571673 14.0036818,20.8766369 11.7447804,20.14539 C9.48587906,19.414143 7.69760896,18.693767 6.37991649,17.9842403 C2.7888425,16.0439019 0.993332435,13.4302764 0.993332435,10.1432853 C0.993332435,8.43462912 1.47478977,6.91061755 2.43771888,5.57120488 C3.400648,4.2317922 4.78348034,3.18561799 6.58625741,2.43265086 C8.38903447,1.67968374 10.4126033,1.30320582 12.6570245,1.30320582 C14.9159259,1.30320582 16.9286348,1.71226355 18.6952115,2.5303913 C20.4617882,3.34851904 21.8337606,4.50329265 22.8111699,5.99474677 C23.7885791,7.48620088 24.2772764,9.18035151 24.2772764,11.0772495 L17.7612473,11.0772495 C17.7612473,9.62923576 17.3051298,8.50342199 16.3928812,7.69977438 C15.4806326,6.89612677 14.1991597,6.494309 12.548424,6.494309 C10.955609,6.494309 9.71757581,6.83096713 8.83428745,7.50429351 C7.95099909,8.17761988 7.50936153,9.06451497 7.50936153,10.1650054 C7.50936153,11.1930951 8.02701866,12.0546504 9.06234846,12.7496969 C10.0976783,13.4447435 11.6216898,14.0963399 13.6344289,14.7045057 C17.341344,15.8194762 20.041849,17.2023086 21.7360251,18.8530442 C23.4302011,20.5037798 24.2772764,22.5599284 24.2772764,25.0215517 C24.2772764,27.7582976 23.2419621,29.9049457 21.1713025,31.4615605 C19.1006429,33.0181752 16.3132584,33.7964709 12.8090652,33.7964709 C10.3764022,33.7964709 8.16097443,33.3512134 6.16271552,32.4606849 C4.1644566,31.5701565 2.64044504,30.3502233 1.5906351,28.8008486 C0.540825166,27.2514739 0.0159280711,25.4559639 0.0159280711,23.4142645 L6.55367726,23.4142645 C6.55367726,26.9039776 8.63878572,28.6488079 12.8090652,28.6488079 C14.3584399,28.6488079 15.5675132,28.3338697 16.4363214,27.7039837 C17.3051296,27.0740977 17.7395272,26.1944426 17.7395272,25.0649919 Z M35.7889278,4.08337823 L35.7889278,9.86092403 L39.8071457,9.86092403 L39.8071457,14.4655846 L35.7889278,14.4655846 L35.7889278,26.194437 C35.7889278,27.0632452 35.9554469,27.6858817 36.28849,28.0623653 C36.6215332,28.4388489 37.2586497,28.6270878 38.1998586,28.6270878 C38.8949051,28.6270878 39.5103017,28.5764081 40.0460668,28.4750471 L40.0460668,33.2317484 C38.8152552,33.6082319 37.5482622,33.7964709 36.2450498,33.7964709 C31.8430882,33.7964709 29.5987006,31.5738032 29.5118198,27.1284011 L29.5118198,14.4655846 L26.0800445,14.4655846 L26.0800445,9.86092403 L29.5118198,9.86092403 L29.5118198,4.08337823 L35.7889278,4.08337823 Z M57.3787042,30.9728583 C55.8293295,32.8552761 53.6863014,33.7964709 50.9495555,33.7964709 C48.4300116,33.7964709 46.5078023,33.0724749 45.1828697,31.6244612 C43.8579372,30.1764475 43.181001,28.0551392 43.1520407,25.2604728 L43.1520407,9.86092403 L49.4291487,9.86092403 L49.4291487,25.0432718 C49.4291487,27.490415 50.5441025,28.7139682 52.7740436,28.7139682 C54.9026238,28.7139682 56.3650957,27.9754923 57.1615032,26.4985183 L57.1615032,9.86092403 L63.4603314,9.86092403 L63.4603314,33.362069 L57.552465,33.362069 L57.3787042,30.9728583 Z M67.2179081,21.4377357 C67.2179081,17.774261 68.0396436,14.8565572 69.6831391,12.6845366 C71.3266347,10.5125161 73.5746423,9.42652209 76.4272293,9.42652209 C78.7150909,9.42652209 80.6047205,10.2808374 82.0961746,11.9894935 L82.0961746,0 L88.3950027,0 L88.3950027,33.362069 L82.7260574,33.362069 L82.421976,30.8642578 C80.8581212,32.8190763 78.8454124,33.7964709 76.3837891,33.7964709 C73.6180829,33.7964709 71.3990352,32.7068569 69.7265793,30.5275963 C68.0541235,28.3483357 67.2179081,25.3184125 67.2179081,21.4377357 Z M73.4950162,21.8938578 C73.4950162,24.0948386 73.878734,25.7817493 74.6461813,26.9546404 C75.4136286,28.1275315 76.5285824,28.7139682 77.9910762,28.7139682 C79.9314146,28.7139682 81.299767,27.8958527 82.0961746,26.2595973 L82.0961746,16.9851158 C81.3142472,15.3488604 79.9603747,14.5307449 78.0345164,14.5307449 C75.0081678,14.5307449 73.4950162,16.9850913 73.4950162,21.8938578 Z M102.035224,24.4785493 L106.379243,9.86092403 L113.112473,9.86092403 L103.664231,37.0110453 L103.142949,38.2490908 C101.738375,41.3188798 99.4215881,42.8537513 96.1925175,42.8537513 C95.2802689,42.8537513 94.353554,42.7161921 93.4123451,42.4410695 L93.4123451,37.6843683 L94.3680294,37.7060884 C95.5554006,37.7060884 96.4422957,37.5250894 97.0287412,37.1630859 C97.6151868,36.8010825 98.0749243,36.2001658 98.4079674,35.3603179 L99.1464507,33.4272293 L90.9145339,9.86092403 L97.6694841,9.86092403 L102.035224,24.4785493 Z M140.827317,22.8278219 C140.581154,26.2306541 139.325021,28.9094393 137.05888,30.8642578 C134.792739,32.8190763 131.806255,33.7964709 128.09934,33.7964709 C124.044902,33.7964709 120.855699,32.4317385 118.531637,29.7022326 C116.207575,26.9727268 115.045562,23.2260475 115.045562,18.4620824 L115.045562,16.5289938 C115.045562,13.488165 115.581319,10.8093798 116.652849,8.49255792 C117.724379,6.17573599 119.255631,4.39832583 121.246649,3.16027411 C123.237668,1.92222239 125.550835,1.30320582 128.18622,1.30320582 C131.835215,1.30320582 134.774639,2.28060041 137.00458,4.23541891 C139.234521,6.19023741 140.523234,8.93418223 140.870757,12.4673357 L134.354728,12.4673357 C134.195446,10.4256363 133.62711,8.94506454 132.6497,8.02557584 C131.672291,7.10608713 130.184479,6.64634968 128.18622,6.64634968 C126.0142,6.64634968 124.388829,7.42464537 123.310059,8.9812601 C122.231288,10.5378748 121.677431,12.9524015 121.648471,16.2249124 L121.648471,18.6141231 C121.648471,22.0314355 122.166128,24.5292216 123.201458,26.1075566 C124.236788,27.6858915 125.869399,28.4750471 128.09934,28.4750471 C130.112079,28.4750471 131.614371,28.0153097 132.60626,27.095821 C133.598149,26.1763323 134.166486,24.7536802 134.311288,22.8278219 L140.827317,22.8278219 Z M152.013167,28.1275256 L167.955718,28.1275256 L167.955718,33.362069 L143.86813,33.362069 L143.86813,29.5393319 L159.5066,7.01559133 L143.88985,7.01559133 L143.88985,1.73760776 L167.608196,1.73760776 L167.608196,5.47346444 L152.013167,28.1275256 Z" id="StudyCZ" fill="#2A2A2A"></path>
            </g>
        </g>
    </g>
</svg>