<svg xmlns="http://www.w3.org/2000/svg" width="640" height="512" viewBox="0 0 640 512"><path d="M504 32h-87.3l-4.9-9.9C405 8.5 391.2 0 376 0H264c-15.2 0-29 8.5-35.8 22.1l-4.9 9.9H136c-22.1 0-40 17.9-40 40v48c0 19.3 13.8 35.5 32 39.2V416c0 52.9 43.1 96 96 96h192c52.9 0 96-43.1 96-96V159.2c18.2-3.7 32-19.9 32-39.2V72c0-22.1-17.9-40-40-40zm-24 384c0 35.3-28.7 64-64 64H224c-35.3 0-64-28.7-64-64V168c0-4.4 3.6-8 8-8h304c4.4 0 8 3.6 8 8v248zm32-296c0 4.4-3.6 8-8 8H136c-4.4 0-8-3.6-8-8V72c0-4.4 3.6-8 8-8h107.1l13.8-27.6c1.4-2.7 4.1-4.4 7.2-4.4h112c3 0 5.8 1.7 7.2 4.4L396.9 64H504c4.4 0 8 3.6 8 8v48z"/><path d="M336 232v176c0 4.4-3.6 8-8 8h-16c-4.4 0-8-3.6-8-8V232c0-4.4 3.6-8 8-8h16c4.4 0 8 3.6 8 8zM416 232v176c0 4.4-3.6 8-8 8h-16c-4.4 0-8-3.6-8-8V232c0-4.4 3.6-8 8-8h16c4.4 0 8 3.6 8 8zM256 232v176c0 4.4-3.6 8-8 8h-16c-4.4 0-8-3.6-8-8V232c0-4.4 3.6-8 8-8h16c4.4 0 8 3.6 8 8z"/></svg>
